<mxfile host="app.diagrams.net" modified="2024-01-28T03:18:28.091Z" agent="Mozilla/5.0 (X11; Linux x86_64; rv:122.0) Gecko/20100101 Firefox/122.0" etag="-UVSsCldGx1dS9mI4oh-" version="23.0.2" type="github" pages="2">
  <diagram id="C5RBs43oDa-KdzZeNtuy" name="Page-1">
    <mxGraphModel dx="880" dy="428" grid="1" gridSize="10" guides="1" tooltips="1" connect="1" arrows="1" fold="1" page="1" pageScale="1" pageWidth="827" pageHeight="1169" math="0" shadow="0">
      <root>
        <mxCell id="WIyWlLk6GJQsqaUBKTNV-0" />
        <mxCell id="WIyWlLk6GJQsqaUBKTNV-1" parent="WIyWlLk6GJQsqaUBKTNV-0" />
        <mxCell id="m6kwy4TWqkZUMXr9ItlO-1" value="&lt;div&gt;Guardando:&lt;/div&gt;&lt;div&gt;valor en la variable FAC&lt;/div&gt;&lt;div&gt;tipo en la variable TIPO_FAC&lt;br&gt;&lt;/div&gt;&lt;div&gt;&lt;br&gt;&lt;/div&gt;" style="shape=internalStorage;whiteSpace=wrap;html=1;dx=15;dy=15;rounded=1;arcSize=8;strokeWidth=2;" vertex="1" parent="WIyWlLk6GJQsqaUBKTNV-1">
          <mxGeometry x="553.75" y="510" width="205" height="100" as="geometry" />
        </mxCell>
        <mxCell id="m6kwy4TWqkZUMXr9ItlO-2" value="&lt;div&gt;Guardando el valor&amp;nbsp;&lt;/div&gt;&lt;div&gt;en la variable TMB&lt;br&gt;&lt;/div&gt;" style="shape=internalStorage;whiteSpace=wrap;html=1;dx=15;dy=15;rounded=1;arcSize=8;strokeWidth=2;" vertex="1" parent="WIyWlLk6GJQsqaUBKTNV-1">
          <mxGeometry x="553.75" y="640" width="150" height="100" as="geometry" />
        </mxCell>
        <mxCell id="m6kwy4TWqkZUMXr9ItlO-31" style="edgeStyle=orthogonalEdgeStyle;rounded=0;orthogonalLoop=1;jettySize=auto;html=1;entryX=0;entryY=0.5;entryDx=0;entryDy=0;" edge="1" parent="WIyWlLk6GJQsqaUBKTNV-1" source="m6kwy4TWqkZUMXr9ItlO-4" target="m6kwy4TWqkZUMXr9ItlO-1">
          <mxGeometry relative="1" as="geometry" />
        </mxCell>
        <mxCell id="m6kwy4TWqkZUMXr9ItlO-4" value="Seleccione el&lt;div&gt;Factor de Actividad&lt;/div&gt;" style="html=1;strokeWidth=2;shape=manualInput;whiteSpace=wrap;rounded=1;size=26;arcSize=11;" vertex="1" parent="WIyWlLk6GJQsqaUBKTNV-1">
          <mxGeometry x="358.75" y="520" width="130" height="80" as="geometry" />
        </mxCell>
        <mxCell id="m6kwy4TWqkZUMXr9ItlO-32" style="edgeStyle=orthogonalEdgeStyle;rounded=0;orthogonalLoop=1;jettySize=auto;html=1;entryX=0;entryY=0.5;entryDx=0;entryDy=0;" edge="1" parent="WIyWlLk6GJQsqaUBKTNV-1" source="m6kwy4TWqkZUMXr9ItlO-5" target="m6kwy4TWqkZUMXr9ItlO-2">
          <mxGeometry relative="1" as="geometry" />
        </mxCell>
        <mxCell id="m6kwy4TWqkZUMXr9ItlO-34" value="" style="edgeStyle=orthogonalEdgeStyle;rounded=0;orthogonalLoop=1;jettySize=auto;html=1;" edge="1" parent="WIyWlLk6GJQsqaUBKTNV-1" source="m6kwy4TWqkZUMXr9ItlO-5" target="m6kwy4TWqkZUMXr9ItlO-6">
          <mxGeometry relative="1" as="geometry" />
        </mxCell>
        <mxCell id="m6kwy4TWqkZUMXr9ItlO-5" value="Ingresando el&amp;nbsp;Tasa Metabolica Basal " style="html=1;strokeWidth=2;shape=manualInput;whiteSpace=wrap;rounded=1;size=26;arcSize=11;" vertex="1" parent="WIyWlLk6GJQsqaUBKTNV-1">
          <mxGeometry x="363.75" y="650" width="130" height="80" as="geometry" />
        </mxCell>
        <mxCell id="m6kwy4TWqkZUMXr9ItlO-35" value="" style="edgeStyle=orthogonalEdgeStyle;rounded=0;orthogonalLoop=1;jettySize=auto;html=1;" edge="1" parent="WIyWlLk6GJQsqaUBKTNV-1" source="m6kwy4TWqkZUMXr9ItlO-6" target="m6kwy4TWqkZUMXr9ItlO-7">
          <mxGeometry relative="1" as="geometry" />
        </mxCell>
        <mxCell id="m6kwy4TWqkZUMXr9ItlO-6" value="Calculado el Gasto&amp;nbsp;Energético Total " style="rounded=1;whiteSpace=wrap;html=1;absoluteArcSize=1;arcSize=14;strokeWidth=2;" vertex="1" parent="WIyWlLk6GJQsqaUBKTNV-1">
          <mxGeometry x="378.75" y="770" width="100" height="100" as="geometry" />
        </mxCell>
        <mxCell id="m6kwy4TWqkZUMXr9ItlO-37" value="" style="edgeStyle=orthogonalEdgeStyle;rounded=0;orthogonalLoop=1;jettySize=auto;html=1;" edge="1" parent="WIyWlLk6GJQsqaUBKTNV-1" source="m6kwy4TWqkZUMXr9ItlO-7" target="m6kwy4TWqkZUMXr9ItlO-36">
          <mxGeometry relative="1" as="geometry" />
        </mxCell>
        <mxCell id="m6kwy4TWqkZUMXr9ItlO-44" value="" style="edgeStyle=orthogonalEdgeStyle;rounded=0;orthogonalLoop=1;jettySize=auto;html=1;" edge="1" parent="WIyWlLk6GJQsqaUBKTNV-1" source="m6kwy4TWqkZUMXr9ItlO-7" target="m6kwy4TWqkZUMXr9ItlO-38">
          <mxGeometry relative="1" as="geometry" />
        </mxCell>
        <mxCell id="m6kwy4TWqkZUMXr9ItlO-7" value="GET = TMB * FAC" style="rounded=1;whiteSpace=wrap;html=1;absoluteArcSize=1;arcSize=14;strokeWidth=2;" vertex="1" parent="WIyWlLk6GJQsqaUBKTNV-1">
          <mxGeometry x="378.75" y="900" width="100" height="100" as="geometry" />
        </mxCell>
        <mxCell id="m6kwy4TWqkZUMXr9ItlO-12" style="edgeStyle=orthogonalEdgeStyle;rounded=0;orthogonalLoop=1;jettySize=auto;html=1;" edge="1" parent="WIyWlLk6GJQsqaUBKTNV-1" source="m6kwy4TWqkZUMXr9ItlO-8" target="m6kwy4TWqkZUMXr9ItlO-11">
          <mxGeometry relative="1" as="geometry" />
        </mxCell>
        <mxCell id="m6kwy4TWqkZUMXr9ItlO-8" value="" style="strokeWidth=2;html=1;shape=mxgraph.flowchart.start_2;whiteSpace=wrap;" vertex="1" parent="WIyWlLk6GJQsqaUBKTNV-1">
          <mxGeometry x="20" y="20" width="40" height="40" as="geometry" />
        </mxCell>
        <mxCell id="m6kwy4TWqkZUMXr9ItlO-9" value="" style="strokeWidth=2;html=1;shape=mxgraph.flowchart.start_2;whiteSpace=wrap;" vertex="1" parent="WIyWlLk6GJQsqaUBKTNV-1">
          <mxGeometry x="20" y="1080" width="40" height="40" as="geometry" />
        </mxCell>
        <mxCell id="m6kwy4TWqkZUMXr9ItlO-42" value="" style="edgeStyle=orthogonalEdgeStyle;rounded=0;orthogonalLoop=1;jettySize=auto;html=1;" edge="1" parent="WIyWlLk6GJQsqaUBKTNV-1" source="m6kwy4TWqkZUMXr9ItlO-11" target="m6kwy4TWqkZUMXr9ItlO-41">
          <mxGeometry relative="1" as="geometry" />
        </mxCell>
        <mxCell id="m6kwy4TWqkZUMXr9ItlO-11" value="&lt;div&gt;Indicar el&lt;/div&gt;&lt;div&gt;género:&lt;/div&gt;" style="strokeWidth=2;html=1;shape=mxgraph.flowchart.display;whiteSpace=wrap;" vertex="1" parent="WIyWlLk6GJQsqaUBKTNV-1">
          <mxGeometry x="150" y="10" width="100" height="60" as="geometry" />
        </mxCell>
        <mxCell id="m6kwy4TWqkZUMXr9ItlO-21" style="edgeStyle=orthogonalEdgeStyle;rounded=0;orthogonalLoop=1;jettySize=auto;html=1;exitX=1;exitY=0.5;exitDx=0;exitDy=0;" edge="1" parent="WIyWlLk6GJQsqaUBKTNV-1" source="m6kwy4TWqkZUMXr9ItlO-14" target="m6kwy4TWqkZUMXr9ItlO-19">
          <mxGeometry relative="1" as="geometry">
            <Array as="points">
              <mxPoint x="405" y="275" />
            </Array>
          </mxGeometry>
        </mxCell>
        <mxCell id="m6kwy4TWqkZUMXr9ItlO-22" value="M" style="edgeLabel;html=1;align=center;verticalAlign=middle;resizable=0;points=[];" vertex="1" connectable="0" parent="m6kwy4TWqkZUMXr9ItlO-21">
          <mxGeometry x="-0.1325" relative="1" as="geometry">
            <mxPoint y="-10" as="offset" />
          </mxGeometry>
        </mxCell>
        <mxCell id="m6kwy4TWqkZUMXr9ItlO-27" style="edgeStyle=orthogonalEdgeStyle;rounded=0;orthogonalLoop=1;jettySize=auto;html=1;" edge="1" parent="WIyWlLk6GJQsqaUBKTNV-1" source="m6kwy4TWqkZUMXr9ItlO-14" target="m6kwy4TWqkZUMXr9ItlO-23">
          <mxGeometry relative="1" as="geometry" />
        </mxCell>
        <mxCell id="m6kwy4TWqkZUMXr9ItlO-28" value="&lt;div&gt;H&lt;/div&gt;" style="edgeLabel;html=1;align=center;verticalAlign=middle;resizable=0;points=[];" vertex="1" connectable="0" parent="m6kwy4TWqkZUMXr9ItlO-27">
          <mxGeometry x="-0.4222" y="-3" relative="1" as="geometry">
            <mxPoint x="-7" as="offset" />
          </mxGeometry>
        </mxCell>
        <mxCell id="m6kwy4TWqkZUMXr9ItlO-14" value="&lt;div&gt;M -&amp;gt; Mujer&lt;/div&gt;&lt;div&gt;H -&amp;gt; Hombre&lt;/div&gt;" style="rhombus;whiteSpace=wrap;html=1;strokeWidth=2;rounded=1;arcSize=11;" vertex="1" parent="WIyWlLk6GJQsqaUBKTNV-1">
          <mxGeometry x="120" y="220" width="160" height="110" as="geometry" />
        </mxCell>
        <mxCell id="m6kwy4TWqkZUMXr9ItlO-19" value="&lt;div&gt;Datos para FAC:&lt;/div&gt;&lt;div&gt;Actividad Ligera: 1.56&lt;/div&gt;&lt;div&gt;&lt;div&gt;&lt;div&gt;Actividad Moderada: 1.64&lt;/div&gt;Actividad Intensa: 1.82&lt;br&gt;&lt;/div&gt;&lt;/div&gt;" style="shape=parallelogram;html=1;strokeWidth=2;perimeter=parallelogramPerimeter;whiteSpace=wrap;rounded=1;arcSize=12;size=0.23;" vertex="1" parent="WIyWlLk6GJQsqaUBKTNV-1">
          <mxGeometry x="320" y="240" width="210" height="80" as="geometry" />
        </mxCell>
        <mxCell id="m6kwy4TWqkZUMXr9ItlO-23" value="&lt;div&gt;Datos para FAC:&lt;/div&gt;&lt;div&gt;Actividad Ligera: 1.55&lt;/div&gt;&lt;div&gt;&lt;div&gt;&lt;div&gt;Actividad Moderada: 1.78&lt;/div&gt;Actividad Intensa: 2.1&lt;br&gt;&lt;/div&gt;&lt;/div&gt;" style="shape=parallelogram;html=1;strokeWidth=2;perimeter=parallelogramPerimeter;whiteSpace=wrap;rounded=1;arcSize=12;size=0.23;" vertex="1" parent="WIyWlLk6GJQsqaUBKTNV-1">
          <mxGeometry x="95" y="380" width="210" height="80" as="geometry" />
        </mxCell>
        <mxCell id="m6kwy4TWqkZUMXr9ItlO-33" style="edgeStyle=orthogonalEdgeStyle;rounded=0;orthogonalLoop=1;jettySize=auto;html=1;entryX=0.462;entryY=0.125;entryDx=0;entryDy=0;entryPerimeter=0;" edge="1" parent="WIyWlLk6GJQsqaUBKTNV-1" source="m6kwy4TWqkZUMXr9ItlO-4" target="m6kwy4TWqkZUMXr9ItlO-5">
          <mxGeometry relative="1" as="geometry" />
        </mxCell>
        <mxCell id="m6kwy4TWqkZUMXr9ItlO-36" value="&lt;div&gt;Guardando el valor&amp;nbsp;&lt;/div&gt;&lt;div&gt;en la variable GET&lt;br&gt;&lt;/div&gt;" style="shape=internalStorage;whiteSpace=wrap;html=1;dx=15;dy=15;rounded=1;arcSize=8;strokeWidth=2;" vertex="1" parent="WIyWlLk6GJQsqaUBKTNV-1">
          <mxGeometry x="553.75" y="900" width="150" height="100" as="geometry" />
        </mxCell>
        <mxCell id="m6kwy4TWqkZUMXr9ItlO-38" value="&lt;div&gt;&amp;nbsp;&amp;nbsp;&amp;nbsp; Se muestra en pantalla: &lt;br&gt;&lt;/div&gt;&lt;div&gt;GENERO&lt;/div&gt;&lt;div&gt;TMB&lt;/div&gt;&lt;div&gt;TIPO_FAC&lt;br&gt;&lt;/div&gt;&lt;div&gt;GET&lt;br&gt;&lt;/div&gt;" style="strokeWidth=2;html=1;shape=mxgraph.flowchart.display;whiteSpace=wrap;" vertex="1" parent="WIyWlLk6GJQsqaUBKTNV-1">
          <mxGeometry x="340" y="1030" width="177.5" height="110" as="geometry" />
        </mxCell>
        <mxCell id="f_ICoZWmtFd3LeAbWeHi-2" style="edgeStyle=orthogonalEdgeStyle;rounded=0;orthogonalLoop=1;jettySize=auto;html=1;" edge="1" parent="WIyWlLk6GJQsqaUBKTNV-1" source="m6kwy4TWqkZUMXr9ItlO-39" target="m6kwy4TWqkZUMXr9ItlO-4">
          <mxGeometry relative="1" as="geometry" />
        </mxCell>
        <mxCell id="m6kwy4TWqkZUMXr9ItlO-39" value="&lt;div&gt;Guardando el valor&amp;nbsp;&lt;/div&gt;&lt;div&gt;en la variable GENERO&lt;br&gt;&lt;/div&gt;" style="shape=internalStorage;whiteSpace=wrap;html=1;dx=15;dy=15;rounded=1;arcSize=8;strokeWidth=2;" vertex="1" parent="WIyWlLk6GJQsqaUBKTNV-1">
          <mxGeometry x="352.5" y="380" width="165" height="100" as="geometry" />
        </mxCell>
        <mxCell id="m6kwy4TWqkZUMXr9ItlO-43" value="" style="edgeStyle=orthogonalEdgeStyle;rounded=0;orthogonalLoop=1;jettySize=auto;html=1;" edge="1" parent="WIyWlLk6GJQsqaUBKTNV-1" source="m6kwy4TWqkZUMXr9ItlO-41" target="m6kwy4TWqkZUMXr9ItlO-14">
          <mxGeometry relative="1" as="geometry" />
        </mxCell>
        <mxCell id="m6kwy4TWqkZUMXr9ItlO-41" value="&lt;div&gt;&lt;br&gt;&lt;/div&gt;&lt;div&gt;Seleccione su&lt;/div&gt;&lt;div&gt;género&lt;br&gt;&lt;/div&gt;" style="html=1;strokeWidth=2;shape=manualInput;whiteSpace=wrap;rounded=1;size=26;arcSize=11;" vertex="1" parent="WIyWlLk6GJQsqaUBKTNV-1">
          <mxGeometry x="135" y="100" width="130" height="80" as="geometry" />
        </mxCell>
        <mxCell id="m6kwy4TWqkZUMXr9ItlO-45" style="edgeStyle=orthogonalEdgeStyle;rounded=0;orthogonalLoop=1;jettySize=auto;html=1;entryX=1;entryY=0.5;entryDx=0;entryDy=0;entryPerimeter=0;" edge="1" parent="WIyWlLk6GJQsqaUBKTNV-1" source="m6kwy4TWqkZUMXr9ItlO-38" target="m6kwy4TWqkZUMXr9ItlO-9">
          <mxGeometry relative="1" as="geometry" />
        </mxCell>
        <mxCell id="f_ICoZWmtFd3LeAbWeHi-0" style="edgeStyle=orthogonalEdgeStyle;rounded=0;orthogonalLoop=1;jettySize=auto;html=1;entryX=0.439;entryY=0.11;entryDx=0;entryDy=0;entryPerimeter=0;" edge="1" parent="WIyWlLk6GJQsqaUBKTNV-1" source="m6kwy4TWqkZUMXr9ItlO-19" target="m6kwy4TWqkZUMXr9ItlO-39">
          <mxGeometry relative="1" as="geometry" />
        </mxCell>
        <mxCell id="f_ICoZWmtFd3LeAbWeHi-1" style="edgeStyle=orthogonalEdgeStyle;rounded=0;orthogonalLoop=1;jettySize=auto;html=1;entryX=0.009;entryY=0.68;entryDx=0;entryDy=0;entryPerimeter=0;" edge="1" parent="WIyWlLk6GJQsqaUBKTNV-1" source="m6kwy4TWqkZUMXr9ItlO-23" target="m6kwy4TWqkZUMXr9ItlO-39">
          <mxGeometry relative="1" as="geometry" />
        </mxCell>
      </root>
    </mxGraphModel>
  </diagram>
  <diagram id="q63Ko0mrzy41cSA3-KMq" name="Página-2">
    <mxGraphModel dx="765" dy="372" grid="1" gridSize="10" guides="1" tooltips="1" connect="1" arrows="1" fold="1" page="1" pageScale="1" pageWidth="850" pageHeight="1100" math="0" shadow="0">
      <root>
        <mxCell id="0" />
        <mxCell id="1" parent="0" />
        <mxCell id="fI9eguGHbWqgErELOMYg-2" value="&lt;div&gt;Guardando el valor&amp;nbsp;&lt;/div&gt;&lt;div&gt;en la variable TMB&lt;br&gt;&lt;/div&gt;" style="shape=internalStorage;whiteSpace=wrap;html=1;dx=15;dy=15;rounded=1;arcSize=8;strokeWidth=2;" vertex="1" parent="1">
          <mxGeometry x="160" y="720" width="150" height="100" as="geometry" />
        </mxCell>
        <mxCell id="BER1l8obpwVBUKweC8ke-56" style="edgeStyle=orthogonalEdgeStyle;rounded=0;orthogonalLoop=1;jettySize=auto;html=1;entryX=0.5;entryY=0;entryDx=0;entryDy=0;" edge="1" parent="1" source="fI9eguGHbWqgErELOMYg-4" target="BER1l8obpwVBUKweC8ke-11">
          <mxGeometry relative="1" as="geometry" />
        </mxCell>
        <mxCell id="fI9eguGHbWqgErELOMYg-4" value="Seleccione el&lt;div&gt;Factor de Actividad&lt;/div&gt;" style="html=1;strokeWidth=2;shape=manualInput;whiteSpace=wrap;rounded=1;size=26;arcSize=11;" vertex="1" parent="1">
          <mxGeometry x="45" y="270" width="130" height="80" as="geometry" />
        </mxCell>
        <mxCell id="fI9eguGHbWqgErELOMYg-5" style="edgeStyle=orthogonalEdgeStyle;rounded=0;orthogonalLoop=1;jettySize=auto;html=1;entryX=0;entryY=0.5;entryDx=0;entryDy=0;" edge="1" parent="1" source="fI9eguGHbWqgErELOMYg-7" target="fI9eguGHbWqgErELOMYg-2">
          <mxGeometry relative="1" as="geometry">
            <Array as="points">
              <mxPoint x="140" y="670" />
              <mxPoint x="140" y="770" />
            </Array>
          </mxGeometry>
        </mxCell>
        <mxCell id="BER1l8obpwVBUKweC8ke-67" style="edgeStyle=orthogonalEdgeStyle;rounded=0;orthogonalLoop=1;jettySize=auto;html=1;entryX=0.25;entryY=0;entryDx=0;entryDy=0;" edge="1" parent="1" source="fI9eguGHbWqgErELOMYg-7" target="fI9eguGHbWqgErELOMYg-9">
          <mxGeometry relative="1" as="geometry">
            <Array as="points">
              <mxPoint x="441" y="650" />
            </Array>
          </mxGeometry>
        </mxCell>
        <mxCell id="fI9eguGHbWqgErELOMYg-7" value="Ingresando el&amp;nbsp;Tasa Metabolica Basal " style="html=1;strokeWidth=2;shape=manualInput;whiteSpace=wrap;rounded=1;size=26;arcSize=11;" vertex="1" parent="1">
          <mxGeometry x="175" y="610" width="130" height="80" as="geometry" />
        </mxCell>
        <mxCell id="fI9eguGHbWqgErELOMYg-8" value="" style="edgeStyle=orthogonalEdgeStyle;rounded=0;orthogonalLoop=1;jettySize=auto;html=1;" edge="1" parent="1" source="fI9eguGHbWqgErELOMYg-9" target="fI9eguGHbWqgErELOMYg-12">
          <mxGeometry relative="1" as="geometry" />
        </mxCell>
        <mxCell id="fI9eguGHbWqgErELOMYg-9" value="Calculado el Gasto&amp;nbsp;Energético Total " style="rounded=1;whiteSpace=wrap;html=1;absoluteArcSize=1;arcSize=14;strokeWidth=2;" vertex="1" parent="1">
          <mxGeometry x="416.25" y="740" width="100" height="70" as="geometry" />
        </mxCell>
        <mxCell id="fI9eguGHbWqgErELOMYg-10" value="" style="edgeStyle=orthogonalEdgeStyle;rounded=0;orthogonalLoop=1;jettySize=auto;html=1;" edge="1" parent="1" source="fI9eguGHbWqgErELOMYg-12" target="fI9eguGHbWqgErELOMYg-28">
          <mxGeometry relative="1" as="geometry" />
        </mxCell>
        <mxCell id="fI9eguGHbWqgErELOMYg-11" value="" style="edgeStyle=orthogonalEdgeStyle;rounded=0;orthogonalLoop=1;jettySize=auto;html=1;" edge="1" parent="1" source="fI9eguGHbWqgErELOMYg-12" target="fI9eguGHbWqgErELOMYg-29">
          <mxGeometry relative="1" as="geometry" />
        </mxCell>
        <mxCell id="fI9eguGHbWqgErELOMYg-12" value="GET = TMB * FAC" style="rounded=1;whiteSpace=wrap;html=1;absoluteArcSize=1;arcSize=14;strokeWidth=2;" vertex="1" parent="1">
          <mxGeometry x="416.25" y="850" width="100" height="50" as="geometry" />
        </mxCell>
        <mxCell id="fI9eguGHbWqgErELOMYg-13" style="edgeStyle=orthogonalEdgeStyle;rounded=0;orthogonalLoop=1;jettySize=auto;html=1;" edge="1" parent="1" source="fI9eguGHbWqgErELOMYg-14" target="fI9eguGHbWqgErELOMYg-17">
          <mxGeometry relative="1" as="geometry" />
        </mxCell>
        <mxCell id="fI9eguGHbWqgErELOMYg-14" value="" style="strokeWidth=2;html=1;shape=mxgraph.flowchart.start_2;whiteSpace=wrap;" vertex="1" parent="1">
          <mxGeometry x="20" y="30" width="40" height="40" as="geometry" />
        </mxCell>
        <mxCell id="fI9eguGHbWqgErELOMYg-15" value="" style="strokeWidth=2;html=1;shape=mxgraph.flowchart.start_2;whiteSpace=wrap;" vertex="1" parent="1">
          <mxGeometry x="45" y="1030" width="40" height="40" as="geometry" />
        </mxCell>
        <mxCell id="fI9eguGHbWqgErELOMYg-16" value="" style="edgeStyle=orthogonalEdgeStyle;rounded=0;orthogonalLoop=1;jettySize=auto;html=1;" edge="1" parent="1" source="fI9eguGHbWqgErELOMYg-17" target="fI9eguGHbWqgErELOMYg-33">
          <mxGeometry relative="1" as="geometry" />
        </mxCell>
        <mxCell id="fI9eguGHbWqgErELOMYg-17" value="&lt;div&gt;Indicar el&lt;/div&gt;&lt;div&gt;género:&lt;/div&gt;" style="strokeWidth=2;html=1;shape=mxgraph.flowchart.display;whiteSpace=wrap;" vertex="1" parent="1">
          <mxGeometry x="160" y="20" width="100" height="60" as="geometry" />
        </mxCell>
        <mxCell id="BER1l8obpwVBUKweC8ke-27" value="" style="edgeStyle=orthogonalEdgeStyle;rounded=0;orthogonalLoop=1;jettySize=auto;html=1;" edge="1" parent="1" source="fI9eguGHbWqgErELOMYg-22" target="BER1l8obpwVBUKweC8ke-24">
          <mxGeometry relative="1" as="geometry" />
        </mxCell>
        <mxCell id="BER1l8obpwVBUKweC8ke-28" value="H" style="edgeLabel;html=1;align=center;verticalAlign=middle;resizable=0;points=[];" vertex="1" connectable="0" parent="BER1l8obpwVBUKweC8ke-27">
          <mxGeometry x="-0.72" y="3" relative="1" as="geometry">
            <mxPoint x="7" y="3" as="offset" />
          </mxGeometry>
        </mxCell>
        <mxCell id="fI9eguGHbWqgErELOMYg-22" value="&lt;div&gt;M -&amp;gt; Mujer&lt;/div&gt;&lt;div&gt;H -&amp;gt; Hombre&lt;/div&gt;" style="rhombus;whiteSpace=wrap;html=1;strokeWidth=2;rounded=1;arcSize=11;" vertex="1" parent="1">
          <mxGeometry x="320" y="130" width="160" height="110" as="geometry" />
        </mxCell>
        <mxCell id="fI9eguGHbWqgErELOMYg-28" value="&lt;div&gt;Guardando el valor&amp;nbsp;&lt;/div&gt;&lt;div&gt;en la variable GET&lt;br&gt;&lt;/div&gt;" style="shape=internalStorage;whiteSpace=wrap;html=1;dx=15;dy=15;rounded=1;arcSize=8;strokeWidth=2;" vertex="1" parent="1">
          <mxGeometry x="565" y="870" width="150" height="100" as="geometry" />
        </mxCell>
        <mxCell id="fI9eguGHbWqgErELOMYg-29" value="&lt;div&gt;&amp;nbsp;&amp;nbsp;&amp;nbsp; Se muestra en pantalla: &lt;br&gt;&lt;/div&gt;&lt;div&gt;GENERO&lt;/div&gt;&lt;div&gt;TMB&lt;/div&gt;&lt;div&gt;TIPO_FAC&lt;br&gt;&lt;/div&gt;&lt;div&gt;GET&lt;br&gt;&lt;/div&gt;" style="strokeWidth=2;html=1;shape=mxgraph.flowchart.display;whiteSpace=wrap;" vertex="1" parent="1">
          <mxGeometry x="377.5" y="970" width="177.5" height="110" as="geometry" />
        </mxCell>
        <mxCell id="fI9eguGHbWqgErELOMYg-32" value="" style="edgeStyle=orthogonalEdgeStyle;rounded=0;orthogonalLoop=1;jettySize=auto;html=1;" edge="1" parent="1" source="fI9eguGHbWqgErELOMYg-33" target="fI9eguGHbWqgErELOMYg-22">
          <mxGeometry relative="1" as="geometry" />
        </mxCell>
        <mxCell id="fI9eguGHbWqgErELOMYg-33" value="&lt;div&gt;&lt;br&gt;&lt;/div&gt;&lt;div&gt;Seleccione su&lt;/div&gt;&lt;div&gt;género&lt;br&gt;&lt;/div&gt;" style="html=1;strokeWidth=2;shape=manualInput;whiteSpace=wrap;rounded=1;size=26;arcSize=11;" vertex="1" parent="1">
          <mxGeometry x="335" y="10" width="130" height="80" as="geometry" />
        </mxCell>
        <mxCell id="fI9eguGHbWqgErELOMYg-34" style="edgeStyle=orthogonalEdgeStyle;rounded=0;orthogonalLoop=1;jettySize=auto;html=1;entryX=0.35;entryY=-0.075;entryDx=0;entryDy=0;entryPerimeter=0;" edge="1" parent="1" source="fI9eguGHbWqgErELOMYg-29" target="fI9eguGHbWqgErELOMYg-15">
          <mxGeometry relative="1" as="geometry" />
        </mxCell>
        <mxCell id="BER1l8obpwVBUKweC8ke-5" style="edgeStyle=orthogonalEdgeStyle;rounded=0;orthogonalLoop=1;jettySize=auto;html=1;exitX=1;exitY=0.5;exitDx=0;exitDy=0;entryX=0;entryY=0.5;entryDx=0;entryDy=0;" edge="1" parent="1" source="fI9eguGHbWqgErELOMYg-22" target="BER1l8obpwVBUKweC8ke-25">
          <mxGeometry relative="1" as="geometry">
            <mxPoint x="310.99" y="251" as="targetPoint" />
          </mxGeometry>
        </mxCell>
        <mxCell id="BER1l8obpwVBUKweC8ke-6" value="M" style="edgeLabel;html=1;align=center;verticalAlign=middle;resizable=0;points=[];" vertex="1" connectable="0" parent="BER1l8obpwVBUKweC8ke-5">
          <mxGeometry x="-0.2571" relative="1" as="geometry">
            <mxPoint x="-3" y="-15" as="offset" />
          </mxGeometry>
        </mxCell>
        <mxCell id="BER1l8obpwVBUKweC8ke-18" style="edgeStyle=orthogonalEdgeStyle;rounded=0;orthogonalLoop=1;jettySize=auto;html=1;entryX=0.5;entryY=0;entryDx=0;entryDy=0;" edge="1" parent="1" source="BER1l8obpwVBUKweC8ke-11" target="BER1l8obpwVBUKweC8ke-15">
          <mxGeometry relative="1" as="geometry" />
        </mxCell>
        <mxCell id="BER1l8obpwVBUKweC8ke-19" value="L" style="edgeLabel;html=1;align=center;verticalAlign=middle;resizable=0;points=[];" vertex="1" connectable="0" parent="BER1l8obpwVBUKweC8ke-18">
          <mxGeometry x="0.04" y="-1" relative="1" as="geometry">
            <mxPoint as="offset" />
          </mxGeometry>
        </mxCell>
        <mxCell id="BER1l8obpwVBUKweC8ke-51" style="edgeStyle=orthogonalEdgeStyle;rounded=0;orthogonalLoop=1;jettySize=auto;html=1;entryX=0.5;entryY=0;entryDx=0;entryDy=0;" edge="1" parent="1" source="BER1l8obpwVBUKweC8ke-11" target="BER1l8obpwVBUKweC8ke-17">
          <mxGeometry relative="1" as="geometry">
            <Array as="points">
              <mxPoint x="325" y="410" />
            </Array>
          </mxGeometry>
        </mxCell>
        <mxCell id="BER1l8obpwVBUKweC8ke-52" value="I" style="edgeLabel;html=1;align=center;verticalAlign=middle;resizable=0;points=[];" vertex="1" connectable="0" parent="BER1l8obpwVBUKweC8ke-51">
          <mxGeometry x="0.2923" y="1" relative="1" as="geometry">
            <mxPoint x="-1" y="-11" as="offset" />
          </mxGeometry>
        </mxCell>
        <mxCell id="BER1l8obpwVBUKweC8ke-11" value="" style="verticalLabelPosition=bottom;verticalAlign=top;html=1;shape=hexagon;perimeter=hexagonPerimeter2;arcSize=6;size=0.27;" vertex="1" parent="1">
          <mxGeometry x="175" y="380" width="100" height="60" as="geometry" />
        </mxCell>
        <mxCell id="BER1l8obpwVBUKweC8ke-20" style="edgeStyle=orthogonalEdgeStyle;rounded=0;orthogonalLoop=1;jettySize=auto;html=1;exitX=0.5;exitY=1;exitDx=0;exitDy=0;" edge="1" parent="1" source="BER1l8obpwVBUKweC8ke-11" target="BER1l8obpwVBUKweC8ke-16">
          <mxGeometry relative="1" as="geometry" />
        </mxCell>
        <mxCell id="BER1l8obpwVBUKweC8ke-21" value="M" style="edgeLabel;html=1;align=center;verticalAlign=middle;resizable=0;points=[];" vertex="1" connectable="0" parent="BER1l8obpwVBUKweC8ke-20">
          <mxGeometry x="0.4571" y="-1" relative="1" as="geometry">
            <mxPoint x="11" y="-1" as="offset" />
          </mxGeometry>
        </mxCell>
        <mxCell id="BER1l8obpwVBUKweC8ke-14" value="&lt;div&gt;Ligera: L&lt;/div&gt;&lt;div&gt;Moderada: M&lt;/div&gt;&lt;div&gt;Intensa: I&lt;br&gt;&lt;/div&gt;" style="text;html=1;strokeColor=none;fillColor=none;align=center;verticalAlign=middle;whiteSpace=wrap;rounded=0;" vertex="1" parent="1">
          <mxGeometry x="180" y="395" width="90" height="30" as="geometry" />
        </mxCell>
        <mxCell id="BER1l8obpwVBUKweC8ke-15" value="&lt;div&gt;TIPO_FAC = &quot;Ligera&quot;&lt;/div&gt;&lt;div&gt;FAC = 1.55&lt;br&gt;&lt;/div&gt;" style="rounded=1;whiteSpace=wrap;html=1;absoluteArcSize=1;arcSize=14;strokeWidth=2;" vertex="1" parent="1">
          <mxGeometry x="20" y="430" width="130" height="50" as="geometry" />
        </mxCell>
        <mxCell id="BER1l8obpwVBUKweC8ke-62" style="edgeStyle=orthogonalEdgeStyle;rounded=0;orthogonalLoop=1;jettySize=auto;html=1;" edge="1" parent="1" source="BER1l8obpwVBUKweC8ke-16" target="fI9eguGHbWqgErELOMYg-7">
          <mxGeometry relative="1" as="geometry">
            <Array as="points">
              <mxPoint x="210" y="570" />
              <mxPoint x="210" y="570" />
            </Array>
          </mxGeometry>
        </mxCell>
        <mxCell id="BER1l8obpwVBUKweC8ke-16" value="&lt;div&gt;TIPO_FAC = &quot;Moderada&quot;&lt;/div&gt;&lt;div&gt;FAC = 1.78&lt;br&gt;&lt;/div&gt;" style="rounded=1;whiteSpace=wrap;html=1;absoluteArcSize=1;arcSize=14;strokeWidth=2;" vertex="1" parent="1">
          <mxGeometry x="100" y="490" width="140" height="50" as="geometry" />
        </mxCell>
        <mxCell id="BER1l8obpwVBUKweC8ke-63" style="edgeStyle=orthogonalEdgeStyle;rounded=0;orthogonalLoop=1;jettySize=auto;html=1;" edge="1" parent="1" target="fI9eguGHbWqgErELOMYg-7">
          <mxGeometry relative="1" as="geometry">
            <mxPoint x="331.0000000000002" y="570" as="sourcePoint" />
            <mxPoint x="273.5000000000002" y="605" as="targetPoint" />
            <Array as="points">
              <mxPoint x="331" y="590" />
              <mxPoint x="210" y="590" />
            </Array>
          </mxGeometry>
        </mxCell>
        <mxCell id="BER1l8obpwVBUKweC8ke-17" value="&lt;div&gt;TIPO_FAC = &quot;Intensa&quot;&lt;/div&gt;&lt;div&gt;FAC = 2.1&lt;br&gt;&lt;/div&gt;" style="rounded=1;whiteSpace=wrap;html=1;absoluteArcSize=1;arcSize=14;strokeWidth=2;" vertex="1" parent="1">
          <mxGeometry x="260" y="525" width="130" height="50" as="geometry" />
        </mxCell>
        <mxCell id="BER1l8obpwVBUKweC8ke-29" value="" style="edgeStyle=orthogonalEdgeStyle;rounded=0;orthogonalLoop=1;jettySize=auto;html=1;" edge="1" parent="1" source="BER1l8obpwVBUKweC8ke-24" target="fI9eguGHbWqgErELOMYg-4">
          <mxGeometry relative="1" as="geometry" />
        </mxCell>
        <mxCell id="BER1l8obpwVBUKweC8ke-24" value="&lt;div&gt;GENERO = &quot;Hombre&quot;&lt;/div&gt;" style="rounded=1;whiteSpace=wrap;html=1;absoluteArcSize=1;arcSize=14;strokeWidth=2;" vertex="1" parent="1">
          <mxGeometry x="40" y="160" width="140" height="50" as="geometry" />
        </mxCell>
        <mxCell id="BER1l8obpwVBUKweC8ke-25" value="&lt;div&gt;GENERO = &quot;Mujer&quot;&lt;/div&gt;" style="rounded=1;whiteSpace=wrap;html=1;absoluteArcSize=1;arcSize=14;strokeWidth=2;" vertex="1" parent="1">
          <mxGeometry x="655" y="160" width="140" height="50" as="geometry" />
        </mxCell>
        <mxCell id="BER1l8obpwVBUKweC8ke-36" style="edgeStyle=orthogonalEdgeStyle;rounded=0;orthogonalLoop=1;jettySize=auto;html=1;entryX=0.5;entryY=0;entryDx=0;entryDy=0;" edge="1" parent="1" source="BER1l8obpwVBUKweC8ke-38" target="BER1l8obpwVBUKweC8ke-44">
          <mxGeometry relative="1" as="geometry" />
        </mxCell>
        <mxCell id="BER1l8obpwVBUKweC8ke-37" value="L" style="edgeLabel;html=1;align=center;verticalAlign=middle;resizable=0;points=[];" vertex="1" connectable="0" parent="BER1l8obpwVBUKweC8ke-36">
          <mxGeometry x="0.04" y="-1" relative="1" as="geometry">
            <mxPoint as="offset" />
          </mxGeometry>
        </mxCell>
        <mxCell id="BER1l8obpwVBUKweC8ke-38" value="" style="verticalLabelPosition=bottom;verticalAlign=top;html=1;shape=hexagon;perimeter=hexagonPerimeter2;arcSize=6;size=0.27;" vertex="1" parent="1">
          <mxGeometry x="555" y="390" width="100" height="60" as="geometry" />
        </mxCell>
        <mxCell id="BER1l8obpwVBUKweC8ke-39" style="edgeStyle=orthogonalEdgeStyle;rounded=0;orthogonalLoop=1;jettySize=auto;html=1;exitX=0.5;exitY=1;exitDx=0;exitDy=0;" edge="1" parent="1" source="BER1l8obpwVBUKweC8ke-38" target="BER1l8obpwVBUKweC8ke-45">
          <mxGeometry relative="1" as="geometry" />
        </mxCell>
        <mxCell id="BER1l8obpwVBUKweC8ke-40" value="M" style="edgeLabel;html=1;align=center;verticalAlign=middle;resizable=0;points=[];" vertex="1" connectable="0" parent="BER1l8obpwVBUKweC8ke-39">
          <mxGeometry x="0.4571" y="-1" relative="1" as="geometry">
            <mxPoint x="11" y="-1" as="offset" />
          </mxGeometry>
        </mxCell>
        <mxCell id="BER1l8obpwVBUKweC8ke-41" style="edgeStyle=orthogonalEdgeStyle;rounded=0;orthogonalLoop=1;jettySize=auto;html=1;" edge="1" parent="1" source="BER1l8obpwVBUKweC8ke-43" target="BER1l8obpwVBUKweC8ke-46">
          <mxGeometry relative="1" as="geometry" />
        </mxCell>
        <mxCell id="BER1l8obpwVBUKweC8ke-42" value="&lt;div&gt;I&lt;/div&gt;" style="edgeLabel;html=1;align=center;verticalAlign=middle;resizable=0;points=[];" vertex="1" connectable="0" parent="BER1l8obpwVBUKweC8ke-41">
          <mxGeometry x="0.6308" y="1" relative="1" as="geometry">
            <mxPoint x="-16" y="-49" as="offset" />
          </mxGeometry>
        </mxCell>
        <mxCell id="BER1l8obpwVBUKweC8ke-43" value="&lt;div&gt;Ligera: L&lt;/div&gt;&lt;div&gt;Moderada: M&lt;/div&gt;&lt;div&gt;Intensa: I&lt;br&gt;&lt;/div&gt;" style="text;html=1;strokeColor=none;fillColor=none;align=center;verticalAlign=middle;whiteSpace=wrap;rounded=0;" vertex="1" parent="1">
          <mxGeometry x="565" y="405" width="90" height="30" as="geometry" />
        </mxCell>
        <mxCell id="BER1l8obpwVBUKweC8ke-44" value="&lt;div&gt;TIPO_FAC = &quot;Ligera&quot;&lt;/div&gt;&lt;div&gt;FAC = 1.56&lt;br&gt;&lt;/div&gt;" style="rounded=1;whiteSpace=wrap;html=1;absoluteArcSize=1;arcSize=14;strokeWidth=2;" vertex="1" parent="1">
          <mxGeometry x="410" y="450" width="130" height="50" as="geometry" />
        </mxCell>
        <mxCell id="BER1l8obpwVBUKweC8ke-45" value="&lt;div&gt;TIPO_FAC = &quot;Moderada&quot;&lt;/div&gt;&lt;div&gt;FAC = 1.64&lt;br&gt;&lt;/div&gt;" style="rounded=1;whiteSpace=wrap;html=1;absoluteArcSize=1;arcSize=14;strokeWidth=2;" vertex="1" parent="1">
          <mxGeometry x="555" y="500" width="140" height="50" as="geometry" />
        </mxCell>
        <mxCell id="BER1l8obpwVBUKweC8ke-46" value="&lt;div&gt;TIPO_FAC = &quot;Intensa&quot;&lt;/div&gt;&lt;div&gt;FAC = 1.82&lt;br&gt;&lt;/div&gt;" style="rounded=1;whiteSpace=wrap;html=1;absoluteArcSize=1;arcSize=14;strokeWidth=2;" vertex="1" parent="1">
          <mxGeometry x="705" y="440" width="130" height="50" as="geometry" />
        </mxCell>
        <mxCell id="BER1l8obpwVBUKweC8ke-55" style="edgeStyle=orthogonalEdgeStyle;rounded=0;orthogonalLoop=1;jettySize=auto;html=1;entryX=0.5;entryY=0;entryDx=0;entryDy=0;" edge="1" parent="1" source="BER1l8obpwVBUKweC8ke-53" target="BER1l8obpwVBUKweC8ke-38">
          <mxGeometry relative="1" as="geometry" />
        </mxCell>
        <mxCell id="BER1l8obpwVBUKweC8ke-53" value="Seleccione el&lt;div&gt;Factor de Actividad&lt;/div&gt;" style="html=1;strokeWidth=2;shape=manualInput;whiteSpace=wrap;rounded=1;size=26;arcSize=11;" vertex="1" parent="1">
          <mxGeometry x="565" y="270" width="130" height="80" as="geometry" />
        </mxCell>
        <mxCell id="BER1l8obpwVBUKweC8ke-54" style="edgeStyle=orthogonalEdgeStyle;rounded=0;orthogonalLoop=1;jettySize=auto;html=1;entryX=0.492;entryY=0.163;entryDx=0;entryDy=0;entryPerimeter=0;" edge="1" parent="1" source="BER1l8obpwVBUKweC8ke-25" target="BER1l8obpwVBUKweC8ke-53">
          <mxGeometry relative="1" as="geometry" />
        </mxCell>
        <mxCell id="BER1l8obpwVBUKweC8ke-58" value="&lt;div&gt;Guardando el valor&amp;nbsp;&lt;/div&gt;&lt;div&gt;en la variable TMB&lt;br&gt;&lt;/div&gt;" style="shape=internalStorage;whiteSpace=wrap;html=1;dx=15;dy=15;rounded=1;arcSize=8;strokeWidth=2;" vertex="1" parent="1">
          <mxGeometry x="680" y="720" width="150" height="100" as="geometry" />
        </mxCell>
        <mxCell id="BER1l8obpwVBUKweC8ke-59" style="edgeStyle=orthogonalEdgeStyle;rounded=0;orthogonalLoop=1;jettySize=auto;html=1;entryX=0;entryY=0.5;entryDx=0;entryDy=0;" edge="1" parent="1" source="BER1l8obpwVBUKweC8ke-60" target="BER1l8obpwVBUKweC8ke-58">
          <mxGeometry relative="1" as="geometry">
            <Array as="points">
              <mxPoint x="650" y="680" />
              <mxPoint x="650" y="770" />
            </Array>
          </mxGeometry>
        </mxCell>
        <mxCell id="BER1l8obpwVBUKweC8ke-68" style="edgeStyle=orthogonalEdgeStyle;rounded=0;orthogonalLoop=1;jettySize=auto;html=1;" edge="1" parent="1" source="BER1l8obpwVBUKweC8ke-60" target="fI9eguGHbWqgErELOMYg-9">
          <mxGeometry relative="1" as="geometry">
            <Array as="points">
              <mxPoint x="490" y="650" />
            </Array>
          </mxGeometry>
        </mxCell>
        <mxCell id="BER1l8obpwVBUKweC8ke-60" value="Ingresando el&amp;nbsp;Tasa Metabolica Basal " style="html=1;strokeWidth=2;shape=manualInput;whiteSpace=wrap;rounded=1;size=26;arcSize=11;" vertex="1" parent="1">
          <mxGeometry x="665" y="620" width="130" height="80" as="geometry" />
        </mxCell>
        <mxCell id="BER1l8obpwVBUKweC8ke-61" style="edgeStyle=orthogonalEdgeStyle;rounded=0;orthogonalLoop=1;jettySize=auto;html=1;entryX=0.262;entryY=0.275;entryDx=0;entryDy=0;entryPerimeter=0;" edge="1" parent="1" source="BER1l8obpwVBUKweC8ke-15" target="fI9eguGHbWqgErELOMYg-7">
          <mxGeometry relative="1" as="geometry">
            <Array as="points">
              <mxPoint x="70" y="580" />
              <mxPoint x="209" y="580" />
            </Array>
          </mxGeometry>
        </mxCell>
        <mxCell id="BER1l8obpwVBUKweC8ke-64" style="edgeStyle=orthogonalEdgeStyle;rounded=0;orthogonalLoop=1;jettySize=auto;html=1;entryX=0.087;entryY=0.25;entryDx=0;entryDy=0;entryPerimeter=0;" edge="1" parent="1" source="BER1l8obpwVBUKweC8ke-44" target="BER1l8obpwVBUKweC8ke-60">
          <mxGeometry relative="1" as="geometry">
            <Array as="points">
              <mxPoint x="475" y="580" />
              <mxPoint x="680" y="580" />
              <mxPoint x="680" y="640" />
            </Array>
          </mxGeometry>
        </mxCell>
        <mxCell id="BER1l8obpwVBUKweC8ke-65" style="edgeStyle=orthogonalEdgeStyle;rounded=0;orthogonalLoop=1;jettySize=auto;html=1;entryX=0.263;entryY=0.225;entryDx=0;entryDy=0;entryPerimeter=0;" edge="1" parent="1" source="BER1l8obpwVBUKweC8ke-45" target="BER1l8obpwVBUKweC8ke-60">
          <mxGeometry relative="1" as="geometry">
            <Array as="points">
              <mxPoint x="625" y="580" />
              <mxPoint x="680" y="580" />
              <mxPoint x="680" y="638" />
            </Array>
          </mxGeometry>
        </mxCell>
        <mxCell id="BER1l8obpwVBUKweC8ke-66" style="edgeStyle=orthogonalEdgeStyle;rounded=0;orthogonalLoop=1;jettySize=auto;html=1;entryX=0.487;entryY=0.2;entryDx=0;entryDy=0;entryPerimeter=0;" edge="1" parent="1" source="BER1l8obpwVBUKweC8ke-46" target="BER1l8obpwVBUKweC8ke-60">
          <mxGeometry relative="1" as="geometry">
            <Array as="points">
              <mxPoint x="780" y="580" />
              <mxPoint x="680" y="580" />
              <mxPoint x="680" y="636" />
            </Array>
          </mxGeometry>
        </mxCell>
      </root>
    </mxGraphModel>
  </diagram>
</mxfile>
